<svg width="208" height="38" viewBox="0 0 208 38" fill="none" xmlns="http://www.w3.org/2000/svg">
<rect width="38.0003" height="38.0003" rx="8" fill="#4F13A6"/>
<path d="M19.0001 9.5C13.7617 9.5 9.5 13.7617 9.5 19.0001C9.5 24.2384 13.7617 28.5001 19.0001 28.5001C24.2384 28.5001 28.5001 24.2384 28.5001 19.0001C28.5001 13.7617 24.2384 9.5 19.0001 9.5ZM19.0001 26.6001C14.8096 26.6001 11.4 23.1906 11.4 19.0001C11.4 14.8096 14.8096 11.4 19.0001 11.4C23.1906 11.4 26.6001 14.8096 26.6001 19.0001C26.6001 23.1906 23.1906 26.6001 19.0001 26.6001Z" fill="white"/>
<path d="M19.95 13.3008L14.25 19.9508H18.05V24.7009L23.7501 18.0508H19.95V13.3008Z" fill="white"/>
<path d="M54.032 13.048V18.64H60.128V20.44H54.032V26.2H60.848V28H51.848V11.248H60.848V13.048H54.032ZM63.3367 21.376C63.3367 20.032 63.6087 18.856 64.1527 17.848C64.6967 16.824 65.4407 16.032 66.3847 15.472C67.3447 14.912 68.4087 14.632 69.5767 14.632C70.7287 14.632 71.7287 14.88 72.5767 15.376C73.4247 15.872 74.0567 16.496 74.4727 17.248V14.848H76.6807V28H74.4727V25.552C74.0407 26.32 73.3927 26.96 72.5287 27.472C71.6807 27.968 70.6887 28.216 69.5527 28.216C68.3847 28.216 67.3287 27.928 66.3847 27.352C65.4407 26.776 64.6967 25.968 64.1527 24.928C63.6087 23.888 63.3367 22.704 63.3367 21.376ZM74.4727 21.4C74.4727 20.408 74.2727 19.544 73.8727 18.808C73.4727 18.072 72.9287 17.512 72.2407 17.128C71.5687 16.728 70.8247 16.528 70.0087 16.528C69.1927 16.528 68.4487 16.72 67.7767 17.104C67.1047 17.488 66.5687 18.048 66.1687 18.784C65.7687 19.52 65.5687 20.384 65.5687 21.376C65.5687 22.384 65.7687 23.264 66.1687 24.016C66.5687 24.752 67.1047 25.32 67.7767 25.72C68.4487 26.104 69.1927 26.296 70.0087 26.296C70.8247 26.296 71.5687 26.104 72.2407 25.72C72.9287 25.32 73.4727 24.752 73.8727 24.016C74.2727 23.264 74.4727 22.392 74.4727 21.4ZM85.0274 28.216C84.0194 28.216 83.1154 28.048 82.3154 27.712C81.5154 27.36 80.8834 26.88 80.4194 26.272C79.9554 25.648 79.6994 24.936 79.6514 24.136H81.9074C81.9714 24.792 82.2754 25.328 82.8194 25.744C83.3794 26.16 84.1074 26.368 85.0034 26.368C85.8354 26.368 86.4914 26.184 86.9714 25.816C87.4514 25.448 87.6914 24.984 87.6914 24.424C87.6914 23.848 87.4354 23.424 86.9234 23.152C86.4114 22.864 85.6194 22.584 84.5474 22.312C83.5714 22.056 82.7714 21.8 82.1474 21.544C81.5394 21.272 81.0114 20.88 80.5634 20.368C80.1314 19.84 79.9154 19.152 79.9154 18.304C79.9154 17.632 80.1154 17.016 80.5154 16.456C80.9154 15.896 81.4834 15.456 82.2194 15.136C82.9554 14.8 83.7954 14.632 84.7394 14.632C86.1954 14.632 87.3714 15 88.2674 15.736C89.1634 16.472 89.6434 17.48 89.7074 18.76H87.5234C87.4754 18.072 87.1954 17.52 86.6834 17.104C86.1874 16.688 85.5154 16.48 84.6674 16.48C83.8834 16.48 83.2594 16.648 82.7954 16.984C82.3314 17.32 82.0994 17.76 82.0994 18.304C82.0994 18.736 82.2354 19.096 82.5074 19.384C82.7954 19.656 83.1474 19.88 83.5634 20.056C83.9954 20.216 84.5874 20.4 85.3394 20.608C86.2834 20.864 87.0514 21.12 87.6434 21.376C88.2354 21.616 88.7394 21.984 89.1554 22.48C89.5874 22.976 89.8114 23.624 89.8274 24.424C89.8274 25.144 89.6274 25.792 89.2274 26.368C88.8274 26.944 88.2594 27.4 87.5234 27.736C86.8034 28.056 85.9714 28.216 85.0274 28.216ZM104.239 14.848L96.3185 34.192H94.0625L96.6545 27.856L91.3505 14.848H93.7745L97.9025 25.504L101.983 14.848H104.239ZM122.72 24.28H115.424L114.08 28H111.776L117.824 11.368H120.344L126.368 28H124.064L122.72 24.28ZM122.096 22.504L119.072 14.056L116.048 22.504H122.096ZM140.668 14.848V28H138.484V26.056C138.068 26.728 137.484 27.256 136.732 27.64C135.996 28.008 135.18 28.192 134.284 28.192C133.26 28.192 132.34 27.984 131.524 27.568C130.708 27.136 130.06 26.496 129.58 25.648C129.116 24.8 128.884 23.768 128.884 22.552V14.848H131.044V22.264C131.044 23.56 131.372 24.56 132.028 25.264C132.684 25.952 133.58 26.296 134.716 26.296C135.884 26.296 136.804 25.936 137.476 25.216C138.148 24.496 138.484 23.448 138.484 22.072V14.848H140.668ZM143.54 21.376C143.54 20.032 143.812 18.856 144.356 17.848C144.9 16.824 145.644 16.032 146.588 15.472C147.548 14.912 148.62 14.632 149.804 14.632C150.828 14.632 151.78 14.872 152.66 15.352C153.54 15.816 154.212 16.432 154.676 17.2V10.24H156.884V28H154.676V25.528C154.244 26.312 153.604 26.96 152.756 27.472C151.908 27.968 150.916 28.216 149.78 28.216C148.612 28.216 147.548 27.928 146.588 27.352C145.644 26.776 144.9 25.968 144.356 24.928C143.812 23.888 143.54 22.704 143.54 21.376ZM154.676 21.4C154.676 20.408 154.476 19.544 154.076 18.808C153.676 18.072 153.132 17.512 152.444 17.128C151.772 16.728 151.028 16.528 150.212 16.528C149.396 16.528 148.652 16.72 147.98 17.104C147.308 17.488 146.772 18.048 146.372 18.784C145.972 19.52 145.772 20.384 145.772 21.376C145.772 22.384 145.972 23.264 146.372 24.016C146.772 24.752 147.308 25.32 147.98 25.72C148.652 26.104 149.396 26.296 150.212 26.296C151.028 26.296 151.772 26.104 152.444 25.72C153.132 25.32 153.676 24.752 154.076 24.016C154.476 23.264 154.676 22.392 154.676 21.4ZM161.703 12.712C161.287 12.712 160.935 12.568 160.647 12.28C160.359 11.992 160.215 11.64 160.215 11.224C160.215 10.808 160.359 10.456 160.647 10.168C160.935 9.88 161.287 9.736 161.703 9.736C162.103 9.736 162.439 9.88 162.711 10.168C162.999 10.456 163.143 10.808 163.143 11.224C163.143 11.64 162.999 11.992 162.711 12.28C162.439 12.568 162.103 12.712 161.703 12.712ZM162.759 14.848V28H160.575V14.848H162.759ZM169.145 16.648V24.4C169.145 25.04 169.281 25.496 169.553 25.768C169.825 26.024 170.297 26.152 170.969 26.152H172.577V28H170.609C169.393 28 168.481 27.72 167.873 27.16C167.265 26.6 166.961 25.68 166.961 24.4V16.648H165.257V14.848H166.961V11.536H169.145V14.848H172.577V16.648H169.145Z" fill="#3E3E3E"/>
</svg>
